<mxfile host="Electron" modified="2024-08-08T03:34:16.602Z" agent="Mozilla/5.0 (Macintosh; Intel Mac OS X 10_15_7) AppleWebKit/537.36 (KHTML, like Gecko) draw.io/24.1.0 Chrome/120.0.6099.109 Electron/28.1.0 Safari/537.36" etag="FZY1LlatMsTKLoa64awC" version="24.1.0" type="device" pages="3">
  <diagram id="kz6WtzSUa93HvbE56KJ6" name="Methodology">
    <mxGraphModel dx="752" dy="631" grid="0" gridSize="10" guides="1" tooltips="1" connect="1" arrows="1" fold="1" page="1" pageScale="1" pageWidth="827" pageHeight="1169" math="0" shadow="0">
      <root>
        <mxCell id="0" />
        <mxCell id="1" parent="0" />
        <mxCell id="aaP_zxm3kKT7ZMr-mHgT-1" value="Methodology" style="text;html=1;align=center;verticalAlign=middle;whiteSpace=wrap;rounded=0;fontStyle=4;fontSize=18;" parent="1" vertex="1">
          <mxGeometry x="242" y="30" width="230" height="30" as="geometry" />
        </mxCell>
        <mxCell id="nK5fes1y3x84JEYH7lk5-37" style="edgeStyle=orthogonalEdgeStyle;rounded=0;orthogonalLoop=1;jettySize=auto;html=1;exitX=1;exitY=0.5;exitDx=0;exitDy=0;" parent="1" source="aaP_zxm3kKT7ZMr-mHgT-6" target="aaP_zxm3kKT7ZMr-mHgT-9" edge="1">
          <mxGeometry relative="1" as="geometry" />
        </mxCell>
        <mxCell id="aaP_zxm3kKT7ZMr-mHgT-6" value="Employee Review Texts" style="rounded=1;whiteSpace=wrap;html=1;fontSize=12;glass=0;strokeWidth=1;shadow=0;" parent="1" vertex="1">
          <mxGeometry x="210" y="121" width="120" height="40" as="geometry" />
        </mxCell>
        <mxCell id="nK5fes1y3x84JEYH7lk5-38" style="edgeStyle=orthogonalEdgeStyle;rounded=0;orthogonalLoop=1;jettySize=auto;html=1;exitX=1;exitY=0.5;exitDx=0;exitDy=0;entryX=0;entryY=0.5;entryDx=0;entryDy=0;" parent="1" source="aaP_zxm3kKT7ZMr-mHgT-7" target="2QNahr_R2tRmEMr5rdN6-4" edge="1">
          <mxGeometry relative="1" as="geometry">
            <mxPoint x="367" y="202" as="targetPoint" />
          </mxGeometry>
        </mxCell>
        <mxCell id="aaP_zxm3kKT7ZMr-mHgT-7" value="Company Ratings" style="rounded=1;whiteSpace=wrap;html=1;fontSize=12;glass=0;strokeWidth=1;shadow=0;" parent="1" vertex="1">
          <mxGeometry x="210" y="182" width="120" height="40" as="geometry" />
        </mxCell>
        <mxCell id="nK5fes1y3x84JEYH7lk5-39" style="edgeStyle=orthogonalEdgeStyle;rounded=0;orthogonalLoop=1;jettySize=auto;html=1;exitX=1;exitY=0.5;exitDx=0;exitDy=0;" parent="1" source="aaP_zxm3kKT7ZMr-mHgT-8" target="aaP_zxm3kKT7ZMr-mHgT-10" edge="1">
          <mxGeometry relative="1" as="geometry" />
        </mxCell>
        <mxCell id="aaP_zxm3kKT7ZMr-mHgT-8" value="Employee Status" style="rounded=1;whiteSpace=wrap;html=1;fontSize=12;glass=0;strokeWidth=1;shadow=0;" parent="1" vertex="1">
          <mxGeometry x="210" y="244" width="120" height="40" as="geometry" />
        </mxCell>
        <mxCell id="nK5fes1y3x84JEYH7lk5-43" style="edgeStyle=orthogonalEdgeStyle;rounded=0;orthogonalLoop=1;jettySize=auto;html=1;exitX=1;exitY=0.5;exitDx=0;exitDy=0;" parent="1" source="aaP_zxm3kKT7ZMr-mHgT-9" target="aaP_zxm3kKT7ZMr-mHgT-40" edge="1">
          <mxGeometry relative="1" as="geometry" />
        </mxCell>
        <mxCell id="aaP_zxm3kKT7ZMr-mHgT-9" value="Text Pre-processing" style="rounded=1;whiteSpace=wrap;html=1;fontSize=12;glass=0;strokeWidth=1;shadow=0;" parent="1" vertex="1">
          <mxGeometry x="367" y="121" width="120" height="40" as="geometry" />
        </mxCell>
        <mxCell id="nK5fes1y3x84JEYH7lk5-45" style="edgeStyle=orthogonalEdgeStyle;rounded=0;orthogonalLoop=1;jettySize=auto;html=1;exitX=1;exitY=0.5;exitDx=0;exitDy=0;entryX=0;entryY=0.75;entryDx=0;entryDy=0;" parent="1" source="aaP_zxm3kKT7ZMr-mHgT-10" target="aaP_zxm3kKT7ZMr-mHgT-16" edge="1">
          <mxGeometry relative="1" as="geometry" />
        </mxCell>
        <mxCell id="aaP_zxm3kKT7ZMr-mHgT-10" value="Transform to Employee Retention" style="rounded=1;whiteSpace=wrap;html=1;fontSize=12;glass=0;strokeWidth=1;shadow=0;" parent="1" vertex="1">
          <mxGeometry x="367" y="244" width="120" height="40" as="geometry" />
        </mxCell>
        <mxCell id="nK5fes1y3x84JEYH7lk5-44" style="edgeStyle=orthogonalEdgeStyle;rounded=0;orthogonalLoop=1;jettySize=auto;html=1;exitX=1;exitY=0.5;exitDx=0;exitDy=0;entryX=0;entryY=0.25;entryDx=0;entryDy=0;" parent="1" source="2QNahr_R2tRmEMr5rdN6-4" target="aaP_zxm3kKT7ZMr-mHgT-16" edge="1">
          <mxGeometry relative="1" as="geometry">
            <Array as="points">
              <mxPoint x="502" y="202" />
              <mxPoint x="502" y="236" />
            </Array>
            <mxPoint x="487" y="202" as="sourcePoint" />
          </mxGeometry>
        </mxCell>
        <mxCell id="nK5fes1y3x84JEYH7lk5-35" style="edgeStyle=orthogonalEdgeStyle;rounded=0;orthogonalLoop=1;jettySize=auto;html=1;exitX=0.5;exitY=0;exitDx=0;exitDy=0;" parent="1" source="aaP_zxm3kKT7ZMr-mHgT-12" target="aaP_zxm3kKT7ZMr-mHgT-16" edge="1">
          <mxGeometry relative="1" as="geometry" />
        </mxCell>
        <mxCell id="aaP_zxm3kKT7ZMr-mHgT-12" value="Firm Performance Data" style="rounded=1;whiteSpace=wrap;html=1;fontSize=12;glass=0;strokeWidth=1;shadow=0;" parent="1" vertex="1">
          <mxGeometry x="523.5" y="339" width="120" height="40" as="geometry" />
        </mxCell>
        <mxCell id="aaP_zxm3kKT7ZMr-mHgT-16" value="&lt;font style=&quot;font-size: 16px;&quot;&gt;&lt;b&gt;Regression Analysis&lt;/b&gt;&lt;/font&gt;" style="shape=process;whiteSpace=wrap;html=1;backgroundOutline=1;" parent="1" vertex="1">
          <mxGeometry x="518" y="222" width="131" height="55" as="geometry" />
        </mxCell>
        <mxCell id="nK5fes1y3x84JEYH7lk5-36" style="edgeStyle=orthogonalEdgeStyle;rounded=0;orthogonalLoop=1;jettySize=auto;html=1;exitX=0.5;exitY=1;exitDx=0;exitDy=0;" parent="1" source="aaP_zxm3kKT7ZMr-mHgT-40" target="aaP_zxm3kKT7ZMr-mHgT-16" edge="1">
          <mxGeometry relative="1" as="geometry" />
        </mxCell>
        <mxCell id="aaP_zxm3kKT7ZMr-mHgT-40" value="Sentiment Analysis" style="rounded=1;whiteSpace=wrap;html=1;fontSize=12;glass=0;strokeWidth=1;shadow=0;" parent="1" vertex="1">
          <mxGeometry x="523.5" y="121" width="120" height="40" as="geometry" />
        </mxCell>
        <mxCell id="nK5fes1y3x84JEYH7lk5-25" style="edgeStyle=orthogonalEdgeStyle;rounded=0;orthogonalLoop=1;jettySize=auto;html=1;exitX=1;exitY=0.5;exitDx=0;exitDy=0;entryX=0;entryY=0.5;entryDx=0;entryDy=0;" parent="1" source="nK5fes1y3x84JEYH7lk5-1" target="aaP_zxm3kKT7ZMr-mHgT-6" edge="1">
          <mxGeometry relative="1" as="geometry" />
        </mxCell>
        <mxCell id="nK5fes1y3x84JEYH7lk5-26" style="edgeStyle=orthogonalEdgeStyle;rounded=0;orthogonalLoop=1;jettySize=auto;html=1;exitX=1;exitY=0.5;exitDx=0;exitDy=0;entryX=0;entryY=0.5;entryDx=0;entryDy=0;" parent="1" source="nK5fes1y3x84JEYH7lk5-1" target="aaP_zxm3kKT7ZMr-mHgT-7" edge="1">
          <mxGeometry relative="1" as="geometry" />
        </mxCell>
        <mxCell id="nK5fes1y3x84JEYH7lk5-27" style="edgeStyle=orthogonalEdgeStyle;rounded=0;orthogonalLoop=1;jettySize=auto;html=1;exitX=1;exitY=0.5;exitDx=0;exitDy=0;entryX=0;entryY=0.5;entryDx=0;entryDy=0;" parent="1" source="nK5fes1y3x84JEYH7lk5-1" target="aaP_zxm3kKT7ZMr-mHgT-8" edge="1">
          <mxGeometry relative="1" as="geometry" />
        </mxCell>
        <mxCell id="nK5fes1y3x84JEYH7lk5-28" style="edgeStyle=orthogonalEdgeStyle;rounded=0;orthogonalLoop=1;jettySize=auto;html=1;exitX=1;exitY=0.5;exitDx=0;exitDy=0;entryX=0;entryY=0.5;entryDx=0;entryDy=0;" parent="1" source="nK5fes1y3x84JEYH7lk5-1" target="nK5fes1y3x84JEYH7lk5-9" edge="1">
          <mxGeometry relative="1" as="geometry" />
        </mxCell>
        <mxCell id="nK5fes1y3x84JEYH7lk5-29" style="edgeStyle=orthogonalEdgeStyle;rounded=0;orthogonalLoop=1;jettySize=auto;html=1;exitX=1;exitY=0.5;exitDx=0;exitDy=0;entryX=0;entryY=0.5;entryDx=0;entryDy=0;" parent="1" source="nK5fes1y3x84JEYH7lk5-1" target="nK5fes1y3x84JEYH7lk5-18" edge="1">
          <mxGeometry relative="1" as="geometry" />
        </mxCell>
        <mxCell id="nK5fes1y3x84JEYH7lk5-1" value="Merge Datasets" style="rounded=1;whiteSpace=wrap;html=1;fontSize=12;glass=0;strokeWidth=1;shadow=0;" parent="1" vertex="1">
          <mxGeometry x="51" y="244" width="109" height="40" as="geometry" />
        </mxCell>
        <mxCell id="nK5fes1y3x84JEYH7lk5-9" value="Firm Ticker" style="rounded=1;whiteSpace=wrap;html=1;fontSize=12;glass=0;strokeWidth=1;shadow=0;" parent="1" vertex="1">
          <mxGeometry x="210" y="304" width="120" height="40" as="geometry" />
        </mxCell>
        <mxCell id="nK5fes1y3x84JEYH7lk5-18" value="Review Date" style="rounded=1;whiteSpace=wrap;html=1;fontSize=12;glass=0;strokeWidth=1;shadow=0;" parent="1" vertex="1">
          <mxGeometry x="210" y="364" width="120" height="40" as="geometry" />
        </mxCell>
        <mxCell id="nK5fes1y3x84JEYH7lk5-33" style="edgeStyle=orthogonalEdgeStyle;rounded=0;orthogonalLoop=1;jettySize=auto;html=1;exitX=1;exitY=0.5;exitDx=0;exitDy=0;exitPerimeter=0;entryX=0;entryY=0.5;entryDx=0;entryDy=0;" parent="1" source="nK5fes1y3x84JEYH7lk5-19" target="aaP_zxm3kKT7ZMr-mHgT-12" edge="1">
          <mxGeometry relative="1" as="geometry" />
        </mxCell>
        <mxCell id="nK5fes1y3x84JEYH7lk5-19" value="&lt;div&gt;&lt;span style=&quot;font-size: 14px;&quot;&gt;Yahoo Finance&lt;/span&gt;&lt;/div&gt;&lt;div&gt;&lt;span style=&quot;font-size: 14px;&quot;&gt;&lt;br&gt;&lt;/span&gt;&lt;/div&gt;" style="strokeWidth=2;html=1;shape=mxgraph.flowchart.document2;whiteSpace=wrap;size=0.25;align=center;" parent="1" vertex="1">
          <mxGeometry x="373.5" y="329" width="110" height="60" as="geometry" />
        </mxCell>
        <mxCell id="nK5fes1y3x84JEYH7lk5-30" style="edgeStyle=orthogonalEdgeStyle;rounded=0;orthogonalLoop=1;jettySize=auto;html=1;exitX=1;exitY=0.5;exitDx=0;exitDy=0;entryX=0;entryY=0.5;entryDx=0;entryDy=0;entryPerimeter=0;" parent="1" source="nK5fes1y3x84JEYH7lk5-9" target="nK5fes1y3x84JEYH7lk5-19" edge="1">
          <mxGeometry relative="1" as="geometry" />
        </mxCell>
        <mxCell id="nK5fes1y3x84JEYH7lk5-31" style="edgeStyle=orthogonalEdgeStyle;rounded=0;orthogonalLoop=1;jettySize=auto;html=1;exitX=1;exitY=0.5;exitDx=0;exitDy=0;entryX=0;entryY=0.5;entryDx=0;entryDy=0;entryPerimeter=0;" parent="1" source="nK5fes1y3x84JEYH7lk5-18" target="nK5fes1y3x84JEYH7lk5-19" edge="1">
          <mxGeometry relative="1" as="geometry" />
        </mxCell>
        <mxCell id="2QNahr_R2tRmEMr5rdN6-16" style="edgeStyle=orthogonalEdgeStyle;rounded=0;orthogonalLoop=1;jettySize=auto;html=1;exitX=0.5;exitY=1;exitDx=0;exitDy=0;entryX=0.5;entryY=0;entryDx=0;entryDy=0;" edge="1" parent="1" source="2QNahr_R2tRmEMr5rdN6-2" target="nK5fes1y3x84JEYH7lk5-1">
          <mxGeometry relative="1" as="geometry" />
        </mxCell>
        <mxCell id="2QNahr_R2tRmEMr5rdN6-2" value="Data Cleaning" style="rounded=1;whiteSpace=wrap;html=1;fontSize=12;glass=0;strokeWidth=1;shadow=0;" vertex="1" parent="1">
          <mxGeometry x="58.25" y="196" width="94.5" height="26" as="geometry" />
        </mxCell>
        <mxCell id="2QNahr_R2tRmEMr5rdN6-18" style="edgeStyle=orthogonalEdgeStyle;rounded=0;orthogonalLoop=1;jettySize=auto;html=1;exitX=0.5;exitY=0;exitDx=0;exitDy=0;entryX=0.5;entryY=1;entryDx=0;entryDy=0;" edge="1" parent="1" source="2QNahr_R2tRmEMr5rdN6-3" target="nK5fes1y3x84JEYH7lk5-1">
          <mxGeometry relative="1" as="geometry" />
        </mxCell>
        <mxCell id="2QNahr_R2tRmEMr5rdN6-3" value="Data Cleaning" style="rounded=1;whiteSpace=wrap;html=1;fontSize=12;glass=0;strokeWidth=1;shadow=0;" vertex="1" parent="1">
          <mxGeometry x="59.5" y="304" width="94.5" height="26" as="geometry" />
        </mxCell>
        <mxCell id="2QNahr_R2tRmEMr5rdN6-4" value="Data Cleaning" style="rounded=1;whiteSpace=wrap;html=1;fontSize=12;glass=0;strokeWidth=1;shadow=0;" vertex="1" parent="1">
          <mxGeometry x="379.75" y="189" width="94.5" height="26" as="geometry" />
        </mxCell>
        <mxCell id="2QNahr_R2tRmEMr5rdN6-15" style="edgeStyle=orthogonalEdgeStyle;rounded=0;orthogonalLoop=1;jettySize=auto;html=1;exitX=0.5;exitY=1;exitDx=0;exitDy=0;" edge="1" parent="1">
          <mxGeometry relative="1" as="geometry">
            <mxPoint x="106.47" y="135" as="sourcePoint" />
            <mxPoint x="106.47" y="196" as="targetPoint" />
          </mxGeometry>
        </mxCell>
        <mxCell id="2QNahr_R2tRmEMr5rdN6-10" value="&lt;font style=&quot;font-size: 14px;&quot;&gt;Glassdoor Reviews&lt;/font&gt;&lt;div&gt;&lt;br&gt;&lt;/div&gt;" style="strokeWidth=2;html=1;shape=mxgraph.flowchart.document2;whiteSpace=wrap;size=0.24117647058823527;align=center;" vertex="1" parent="1">
          <mxGeometry x="52.5" y="121" width="107.5" height="53" as="geometry" />
        </mxCell>
        <mxCell id="2QNahr_R2tRmEMr5rdN6-19" style="edgeStyle=orthogonalEdgeStyle;rounded=0;orthogonalLoop=1;jettySize=auto;html=1;exitX=0.5;exitY=0;exitDx=0;exitDy=0;" edge="1" parent="1">
          <mxGeometry relative="1" as="geometry">
            <mxPoint x="106.06" y="392" as="sourcePoint" />
            <mxPoint x="106.06" y="330" as="targetPoint" />
          </mxGeometry>
        </mxCell>
        <mxCell id="aaP_zxm3kKT7ZMr-mHgT-4" value="&lt;font style=&quot;font-size: 14px;&quot;&gt;Top IT Firm Financials&lt;/font&gt;&lt;div&gt;&lt;br&gt;&lt;/div&gt;" style="strokeWidth=2;html=1;shape=mxgraph.flowchart.document2;whiteSpace=wrap;size=0.25;align=center;" parent="1" vertex="1">
          <mxGeometry x="50" y="352" width="110" height="52" as="geometry" />
        </mxCell>
      </root>
    </mxGraphModel>
  </diagram>
  <diagram name="Copy of Methodology" id="wgSStdixwSJJa-IiHfc5">
    <mxGraphModel dx="940" dy="789" grid="1" gridSize="10" guides="1" tooltips="1" connect="1" arrows="1" fold="1" page="1" pageScale="1" pageWidth="827" pageHeight="1169" math="0" shadow="0">
      <root>
        <mxCell id="hbwUhK697xZ0SKavy68Q-0" />
        <mxCell id="hbwUhK697xZ0SKavy68Q-1" parent="hbwUhK697xZ0SKavy68Q-0" />
        <mxCell id="t6XDUFwQbXZ4tdVmE6QA-20" value="" style="edgeStyle=orthogonalEdgeStyle;rounded=0;orthogonalLoop=1;jettySize=auto;html=1;entryX=0;entryY=0.5;entryDx=0;entryDy=0;" parent="hbwUhK697xZ0SKavy68Q-1" target="t6XDUFwQbXZ4tdVmE6QA-16" edge="1">
          <mxGeometry relative="1" as="geometry">
            <mxPoint x="177.5" y="120" as="sourcePoint" />
            <mxPoint x="107.5" y="190" as="targetPoint" />
            <Array as="points">
              <mxPoint x="178" y="190" />
            </Array>
          </mxGeometry>
        </mxCell>
        <mxCell id="t6XDUFwQbXZ4tdVmE6QA-19" value="" style="edgeStyle=orthogonalEdgeStyle;rounded=0;orthogonalLoop=1;jettySize=auto;html=1;entryX=0.5;entryY=0;entryDx=0;entryDy=0;" parent="hbwUhK697xZ0SKavy68Q-1" target="t6XDUFwQbXZ4tdVmE6QA-16" edge="1">
          <mxGeometry relative="1" as="geometry">
            <mxPoint x="310" y="110" as="sourcePoint" />
            <mxPoint x="100" y="220" as="targetPoint" />
            <Array as="points">
              <mxPoint x="310" y="110" />
            </Array>
          </mxGeometry>
        </mxCell>
        <mxCell id="hbwUhK697xZ0SKavy68Q-2" style="edgeStyle=elbowEdgeStyle;rounded=0;orthogonalLoop=1;jettySize=auto;html=1;entryX=0.5;entryY=0;entryDx=0;entryDy=0;" parent="hbwUhK697xZ0SKavy68Q-1" target="hbwUhK697xZ0SKavy68Q-11" edge="1">
          <mxGeometry relative="1" as="geometry">
            <mxPoint x="1040" y="130" as="sourcePoint" />
          </mxGeometry>
        </mxCell>
        <mxCell id="hbwUhK697xZ0SKavy68Q-3" value="Glassdoor Reviews" style="rounded=1;whiteSpace=wrap;html=1;fontSize=12;glass=0;strokeWidth=1;shadow=0;" parent="hbwUhK697xZ0SKavy68Q-1" vertex="1">
          <mxGeometry x="980" y="90" width="120" height="40" as="geometry" />
        </mxCell>
        <mxCell id="hbwUhK697xZ0SKavy68Q-4" style="edgeStyle=orthogonalEdgeStyle;rounded=0;orthogonalLoop=1;jettySize=auto;html=1;exitX=0.5;exitY=1;exitDx=0;exitDy=0;entryX=0.5;entryY=0;entryDx=0;entryDy=0;" parent="hbwUhK697xZ0SKavy68Q-1" source="hbwUhK697xZ0SKavy68Q-5" target="hbwUhK697xZ0SKavy68Q-17" edge="1">
          <mxGeometry relative="1" as="geometry" />
        </mxCell>
        <mxCell id="hbwUhK697xZ0SKavy68Q-5" value="Combine &amp;amp; Reduce Datasets" style="rounded=1;whiteSpace=wrap;html=1;fontSize=12;glass=0;strokeWidth=1;shadow=0;" parent="hbwUhK697xZ0SKavy68Q-1" vertex="1">
          <mxGeometry x="1055" y="230" width="120" height="40" as="geometry" />
        </mxCell>
        <mxCell id="hbwUhK697xZ0SKavy68Q-6" style="edgeStyle=orthogonalEdgeStyle;rounded=0;orthogonalLoop=1;jettySize=auto;html=1;exitX=0;exitY=0.5;exitDx=0;exitDy=0;entryX=1;entryY=0.5;entryDx=0;entryDy=0;" parent="hbwUhK697xZ0SKavy68Q-1" source="hbwUhK697xZ0SKavy68Q-7" target="hbwUhK697xZ0SKavy68Q-21" edge="1">
          <mxGeometry relative="1" as="geometry" />
        </mxCell>
        <mxCell id="hbwUhK697xZ0SKavy68Q-7" value="&lt;b&gt;NLP&lt;br&gt;&lt;/b&gt;&lt;div&gt;Topic Modelling / Sentiment Analysis&lt;/div&gt;&lt;div&gt;- Create sentiment score on &#39;pros&#39; and &#39;cons&#39;&lt;/div&gt;" style="rounded=1;whiteSpace=wrap;html=1;fontSize=12;glass=0;strokeWidth=1;shadow=0;" parent="hbwUhK697xZ0SKavy68Q-1" vertex="1">
          <mxGeometry x="1250" y="380" width="160" height="100" as="geometry" />
        </mxCell>
        <mxCell id="hbwUhK697xZ0SKavy68Q-8" style="edgeStyle=orthogonalEdgeStyle;rounded=0;orthogonalLoop=1;jettySize=auto;html=1;exitX=0.5;exitY=1;exitDx=0;exitDy=0;entryX=0.5;entryY=0;entryDx=0;entryDy=0;" parent="hbwUhK697xZ0SKavy68Q-1" source="hbwUhK697xZ0SKavy68Q-9" target="hbwUhK697xZ0SKavy68Q-15" edge="1">
          <mxGeometry relative="1" as="geometry" />
        </mxCell>
        <mxCell id="hbwUhK697xZ0SKavy68Q-9" value="Top 500 IT Firm Tickers" style="rounded=1;whiteSpace=wrap;html=1;fontSize=12;glass=0;strokeWidth=1;shadow=0;" parent="hbwUhK697xZ0SKavy68Q-1" vertex="1">
          <mxGeometry x="1130" y="90" width="120" height="40" as="geometry" />
        </mxCell>
        <mxCell id="hbwUhK697xZ0SKavy68Q-10" style="edgeStyle=orthogonalEdgeStyle;rounded=0;orthogonalLoop=1;jettySize=auto;html=1;exitX=0.5;exitY=1;exitDx=0;exitDy=0;" parent="hbwUhK697xZ0SKavy68Q-1" source="hbwUhK697xZ0SKavy68Q-11" target="hbwUhK697xZ0SKavy68Q-5" edge="1">
          <mxGeometry relative="1" as="geometry" />
        </mxCell>
        <mxCell id="hbwUhK697xZ0SKavy68Q-11" value="Data Cleaning" style="rounded=1;whiteSpace=wrap;html=1;fontSize=12;glass=0;strokeWidth=1;shadow=0;" parent="hbwUhK697xZ0SKavy68Q-1" vertex="1">
          <mxGeometry x="980" y="150" width="120" height="40" as="geometry" />
        </mxCell>
        <mxCell id="hbwUhK697xZ0SKavy68Q-12" style="edgeStyle=elbowEdgeStyle;rounded=0;orthogonalLoop=1;jettySize=auto;elbow=vertical;html=1;exitX=0.5;exitY=1;exitDx=0;exitDy=0;entryX=0.5;entryY=0;entryDx=0;entryDy=0;" parent="hbwUhK697xZ0SKavy68Q-1" source="hbwUhK697xZ0SKavy68Q-13" target="hbwUhK697xZ0SKavy68Q-7" edge="1">
          <mxGeometry relative="1" as="geometry" />
        </mxCell>
        <mxCell id="hbwUhK697xZ0SKavy68Q-13" value="&lt;b&gt;NLP&lt;/b&gt;&lt;div&gt;Word2Vec Embeddings&lt;/div&gt;" style="rounded=1;whiteSpace=wrap;html=1;fontSize=12;glass=0;strokeWidth=1;shadow=0;" parent="hbwUhK697xZ0SKavy68Q-1" vertex="1">
          <mxGeometry x="1270" y="280" width="120" height="60" as="geometry" />
        </mxCell>
        <mxCell id="hbwUhK697xZ0SKavy68Q-14" style="edgeStyle=orthogonalEdgeStyle;rounded=0;orthogonalLoop=1;jettySize=auto;html=1;exitX=0.5;exitY=1;exitDx=0;exitDy=0;entryX=0.5;entryY=0;entryDx=0;entryDy=0;" parent="hbwUhK697xZ0SKavy68Q-1" source="hbwUhK697xZ0SKavy68Q-15" target="hbwUhK697xZ0SKavy68Q-5" edge="1">
          <mxGeometry relative="1" as="geometry" />
        </mxCell>
        <mxCell id="hbwUhK697xZ0SKavy68Q-15" value="Data Cleaning" style="rounded=1;whiteSpace=wrap;html=1;fontSize=12;glass=0;strokeWidth=1;shadow=0;" parent="hbwUhK697xZ0SKavy68Q-1" vertex="1">
          <mxGeometry x="1130" y="150" width="120" height="40" as="geometry" />
        </mxCell>
        <mxCell id="hbwUhK697xZ0SKavy68Q-16" style="edgeStyle=orthogonalEdgeStyle;rounded=0;orthogonalLoop=1;jettySize=auto;html=1;exitX=0.5;exitY=1;exitDx=0;exitDy=0;entryX=0.5;entryY=0;entryDx=0;entryDy=0;" parent="hbwUhK697xZ0SKavy68Q-1" source="hbwUhK697xZ0SKavy68Q-17" target="hbwUhK697xZ0SKavy68Q-19" edge="1">
          <mxGeometry relative="1" as="geometry" />
        </mxCell>
        <mxCell id="hbwUhK697xZ0SKavy68Q-17" value="Financial Data Retrieval" style="rounded=1;whiteSpace=wrap;html=1;fontSize=12;glass=0;strokeWidth=1;shadow=0;" parent="hbwUhK697xZ0SKavy68Q-1" vertex="1">
          <mxGeometry x="1055" y="290" width="120" height="40" as="geometry" />
        </mxCell>
        <mxCell id="hbwUhK697xZ0SKavy68Q-18" style="edgeStyle=orthogonalEdgeStyle;rounded=0;orthogonalLoop=1;jettySize=auto;html=1;exitX=0.5;exitY=1;exitDx=0;exitDy=0;entryX=0.5;entryY=0;entryDx=0;entryDy=0;" parent="hbwUhK697xZ0SKavy68Q-1" source="hbwUhK697xZ0SKavy68Q-19" target="hbwUhK697xZ0SKavy68Q-21" edge="1">
          <mxGeometry relative="1" as="geometry" />
        </mxCell>
        <mxCell id="hbwUhK697xZ0SKavy68Q-19" value="Combine Datasets by Company &amp;amp;Time Period" style="rounded=1;whiteSpace=wrap;html=1;fontSize=12;glass=0;strokeWidth=1;shadow=0;" parent="hbwUhK697xZ0SKavy68Q-1" vertex="1">
          <mxGeometry x="1047.5" y="350" width="135" height="40" as="geometry" />
        </mxCell>
        <mxCell id="hbwUhK697xZ0SKavy68Q-20" style="edgeStyle=orthogonalEdgeStyle;rounded=0;orthogonalLoop=1;jettySize=auto;html=1;exitX=0.5;exitY=1;exitDx=0;exitDy=0;entryX=0.5;entryY=0;entryDx=0;entryDy=0;" parent="hbwUhK697xZ0SKavy68Q-1" source="hbwUhK697xZ0SKavy68Q-21" target="hbwUhK697xZ0SKavy68Q-23" edge="1">
          <mxGeometry relative="1" as="geometry" />
        </mxCell>
        <mxCell id="hbwUhK697xZ0SKavy68Q-21" value="Convert All Data to Numerical" style="rounded=1;whiteSpace=wrap;html=1;fontSize=12;glass=0;strokeWidth=1;shadow=0;" parent="hbwUhK697xZ0SKavy68Q-1" vertex="1">
          <mxGeometry x="1055" y="410" width="120" height="40" as="geometry" />
        </mxCell>
        <mxCell id="hbwUhK697xZ0SKavy68Q-22" style="edgeStyle=orthogonalEdgeStyle;rounded=0;orthogonalLoop=1;jettySize=auto;html=1;exitX=0.5;exitY=1;exitDx=0;exitDy=0;entryX=0.5;entryY=0;entryDx=0;entryDy=0;" parent="hbwUhK697xZ0SKavy68Q-1" source="hbwUhK697xZ0SKavy68Q-23" target="hbwUhK697xZ0SKavy68Q-24" edge="1">
          <mxGeometry relative="1" as="geometry" />
        </mxCell>
        <mxCell id="hbwUhK697xZ0SKavy68Q-23" value="Train ML Model" style="rounded=1;whiteSpace=wrap;html=1;fontSize=12;glass=0;strokeWidth=1;shadow=0;" parent="hbwUhK697xZ0SKavy68Q-1" vertex="1">
          <mxGeometry x="1055" y="480" width="120" height="40" as="geometry" />
        </mxCell>
        <mxCell id="hbwUhK697xZ0SKavy68Q-24" value="Fine-Tuning" style="rounded=1;whiteSpace=wrap;html=1;fontSize=12;glass=0;strokeWidth=1;shadow=0;" parent="hbwUhK697xZ0SKavy68Q-1" vertex="1">
          <mxGeometry x="1055" y="550" width="120" height="40" as="geometry" />
        </mxCell>
        <mxCell id="hbwUhK697xZ0SKavy68Q-25" value="Methodology" style="text;html=1;align=center;verticalAlign=middle;whiteSpace=wrap;rounded=0;fontStyle=4;fontSize=18;" parent="hbwUhK697xZ0SKavy68Q-1" vertex="1">
          <mxGeometry x="195" y="30" width="230" height="30" as="geometry" />
        </mxCell>
        <mxCell id="hbwUhK697xZ0SKavy68Q-31" value="&lt;font style=&quot;font-size: 14px;&quot;&gt;Top 500 IT Firm Tickers&lt;/font&gt;&lt;div&gt;&lt;br&gt;&lt;/div&gt;" style="strokeWidth=2;html=1;shape=mxgraph.flowchart.document2;whiteSpace=wrap;size=0.25;align=center;" parent="hbwUhK697xZ0SKavy68Q-1" vertex="1">
          <mxGeometry x="254" y="90" width="110" height="60" as="geometry" />
        </mxCell>
        <mxCell id="hbwUhK697xZ0SKavy68Q-29" value="&lt;font style=&quot;font-size: 14px;&quot;&gt;Glassdoor&lt;/font&gt;&lt;div&gt;&lt;br&gt;&lt;/div&gt;" style="strokeWidth=2;html=1;shape=mxgraph.flowchart.document2;whiteSpace=wrap;size=0.24117647058823527;align=center;" parent="hbwUhK697xZ0SKavy68Q-1" vertex="1">
          <mxGeometry x="120" y="90" width="107.5" height="60" as="geometry" />
        </mxCell>
        <mxCell id="t6XDUFwQbXZ4tdVmE6QA-18" value="" style="edgeStyle=orthogonalEdgeStyle;rounded=0;orthogonalLoop=1;jettySize=auto;html=1;entryX=1;entryY=0.5;entryDx=0;entryDy=0;" parent="hbwUhK697xZ0SKavy68Q-1" target="t6XDUFwQbXZ4tdVmE6QA-16" edge="1">
          <mxGeometry relative="1" as="geometry">
            <mxPoint x="440" y="120" as="sourcePoint" />
            <mxPoint x="444" y="230" as="targetPoint" />
            <Array as="points">
              <mxPoint x="440" y="190" />
            </Array>
          </mxGeometry>
        </mxCell>
        <mxCell id="hbwUhK697xZ0SKavy68Q-33" value="&lt;div&gt;&lt;font style=&quot;font-size: 14px;&quot;&gt;Yahoo Finance&lt;/font&gt;&lt;/div&gt;&lt;div&gt;&lt;br&gt;&lt;/div&gt;" style="strokeWidth=2;html=1;shape=mxgraph.flowchart.document2;whiteSpace=wrap;size=0.25;align=center;" parent="hbwUhK697xZ0SKavy68Q-1" vertex="1">
          <mxGeometry x="389" y="90" width="110" height="60" as="geometry" />
        </mxCell>
        <mxCell id="t6XDUFwQbXZ4tdVmE6QA-35" style="edgeStyle=orthogonalEdgeStyle;rounded=0;orthogonalLoop=1;jettySize=auto;html=1;exitX=0.5;exitY=1;exitDx=0;exitDy=0;entryX=0.5;entryY=0;entryDx=0;entryDy=0;" parent="hbwUhK697xZ0SKavy68Q-1" source="hbwUhK697xZ0SKavy68Q-35" target="hbwUhK697xZ0SKavy68Q-54" edge="1">
          <mxGeometry relative="1" as="geometry" />
        </mxCell>
        <mxCell id="hbwUhK697xZ0SKavy68Q-35" value="Employee Review Texts" style="rounded=1;whiteSpace=wrap;html=1;fontSize=12;glass=0;strokeWidth=1;shadow=0;" parent="hbwUhK697xZ0SKavy68Q-1" vertex="1">
          <mxGeometry x="50" y="310" width="120" height="40" as="geometry" />
        </mxCell>
        <mxCell id="t6XDUFwQbXZ4tdVmE6QA-23" style="edgeStyle=orthogonalEdgeStyle;rounded=0;orthogonalLoop=1;jettySize=auto;html=1;exitX=0.5;exitY=1;exitDx=0;exitDy=0;entryX=0.5;entryY=0;entryDx=0;entryDy=0;" parent="hbwUhK697xZ0SKavy68Q-1" source="hbwUhK697xZ0SKavy68Q-37" target="hbwUhK697xZ0SKavy68Q-45" edge="1">
          <mxGeometry relative="1" as="geometry" />
        </mxCell>
        <mxCell id="hbwUhK697xZ0SKavy68Q-37" value="Company Ratings" style="rounded=1;whiteSpace=wrap;html=1;fontSize=12;glass=0;strokeWidth=1;shadow=0;" parent="hbwUhK697xZ0SKavy68Q-1" vertex="1">
          <mxGeometry x="182.5" y="310" width="120" height="40" as="geometry" />
        </mxCell>
        <mxCell id="t6XDUFwQbXZ4tdVmE6QA-29" style="edgeStyle=orthogonalEdgeStyle;rounded=0;orthogonalLoop=1;jettySize=auto;html=1;exitX=0.5;exitY=1;exitDx=0;exitDy=0;entryX=0.5;entryY=0;entryDx=0;entryDy=0;" parent="hbwUhK697xZ0SKavy68Q-1" source="hbwUhK697xZ0SKavy68Q-39" target="hbwUhK697xZ0SKavy68Q-43" edge="1">
          <mxGeometry relative="1" as="geometry" />
        </mxCell>
        <mxCell id="hbwUhK697xZ0SKavy68Q-39" value="Employee Status" style="rounded=1;whiteSpace=wrap;html=1;fontSize=12;glass=0;strokeWidth=1;shadow=0;" parent="hbwUhK697xZ0SKavy68Q-1" vertex="1">
          <mxGeometry x="318.75" y="310" width="120" height="40" as="geometry" />
        </mxCell>
        <mxCell id="t6XDUFwQbXZ4tdVmE6QA-33" style="edgeStyle=orthogonalEdgeStyle;rounded=0;orthogonalLoop=1;jettySize=auto;html=1;exitX=0.5;exitY=1;exitDx=0;exitDy=0;" parent="hbwUhK697xZ0SKavy68Q-1" source="hbwUhK697xZ0SKavy68Q-43" target="hbwUhK697xZ0SKavy68Q-52" edge="1">
          <mxGeometry relative="1" as="geometry">
            <Array as="points">
              <mxPoint x="379" y="430" />
              <mxPoint x="310" y="430" />
            </Array>
          </mxGeometry>
        </mxCell>
        <mxCell id="hbwUhK697xZ0SKavy68Q-43" value="Transform to Employee Retention" style="rounded=1;whiteSpace=wrap;html=1;fontSize=12;glass=0;strokeWidth=1;shadow=0;" parent="hbwUhK697xZ0SKavy68Q-1" vertex="1">
          <mxGeometry x="318.75" y="370" width="120" height="40" as="geometry" />
        </mxCell>
        <mxCell id="t6XDUFwQbXZ4tdVmE6QA-31" style="edgeStyle=orthogonalEdgeStyle;rounded=0;orthogonalLoop=1;jettySize=auto;html=1;exitX=0.5;exitY=1;exitDx=0;exitDy=0;" parent="hbwUhK697xZ0SKavy68Q-1" source="hbwUhK697xZ0SKavy68Q-45" target="hbwUhK697xZ0SKavy68Q-52" edge="1">
          <mxGeometry relative="1" as="geometry">
            <Array as="points">
              <mxPoint x="243" y="430" />
              <mxPoint x="310" y="430" />
            </Array>
          </mxGeometry>
        </mxCell>
        <mxCell id="hbwUhK697xZ0SKavy68Q-45" value="Data Cleaning" style="rounded=1;whiteSpace=wrap;html=1;fontSize=12;glass=0;strokeWidth=1;shadow=0;" parent="hbwUhK697xZ0SKavy68Q-1" vertex="1">
          <mxGeometry x="182.5" y="370" width="120" height="40" as="geometry" />
        </mxCell>
        <mxCell id="t6XDUFwQbXZ4tdVmE6QA-34" style="edgeStyle=orthogonalEdgeStyle;rounded=0;orthogonalLoop=1;jettySize=auto;html=1;exitX=0.5;exitY=1;exitDx=0;exitDy=0;" parent="hbwUhK697xZ0SKavy68Q-1" source="hbwUhK697xZ0SKavy68Q-47" target="hbwUhK697xZ0SKavy68Q-52" edge="1">
          <mxGeometry relative="1" as="geometry">
            <Array as="points">
              <mxPoint x="520" y="430" />
              <mxPoint x="310" y="430" />
            </Array>
          </mxGeometry>
        </mxCell>
        <mxCell id="hbwUhK697xZ0SKavy68Q-47" value="Firm Performance Data" style="rounded=1;whiteSpace=wrap;html=1;fontSize=12;glass=0;strokeWidth=1;shadow=0;" parent="hbwUhK697xZ0SKavy68Q-1" vertex="1">
          <mxGeometry x="460" y="310" width="120" height="40" as="geometry" />
        </mxCell>
        <mxCell id="hbwUhK697xZ0SKavy68Q-52" value="&lt;font style=&quot;font-size: 16px;&quot;&gt;Regression Analysis&lt;/font&gt;" style="rounded=0;whiteSpace=wrap;html=1;" parent="hbwUhK697xZ0SKavy68Q-1" vertex="1">
          <mxGeometry x="204" y="450" width="210" height="50" as="geometry" />
        </mxCell>
        <mxCell id="t6XDUFwQbXZ4tdVmE6QA-32" style="edgeStyle=orthogonalEdgeStyle;rounded=0;orthogonalLoop=1;jettySize=auto;html=1;exitX=0.5;exitY=1;exitDx=0;exitDy=0;" parent="hbwUhK697xZ0SKavy68Q-1" source="hbwUhK697xZ0SKavy68Q-54" target="hbwUhK697xZ0SKavy68Q-52" edge="1">
          <mxGeometry relative="1" as="geometry">
            <Array as="points">
              <mxPoint x="110" y="430" />
              <mxPoint x="310" y="430" />
            </Array>
          </mxGeometry>
        </mxCell>
        <mxCell id="hbwUhK697xZ0SKavy68Q-54" value="Sentiment Analysis" style="rounded=1;whiteSpace=wrap;html=1;fontSize=12;glass=0;strokeWidth=1;shadow=0;" parent="hbwUhK697xZ0SKavy68Q-1" vertex="1">
          <mxGeometry x="50" y="370" width="120" height="40" as="geometry" />
        </mxCell>
        <mxCell id="hbwUhK697xZ0SKavy68Q-55" value="Old Diagram" style="text;html=1;align=center;verticalAlign=middle;whiteSpace=wrap;rounded=0;fontStyle=4;fontSize=18;" parent="hbwUhK697xZ0SKavy68Q-1" vertex="1">
          <mxGeometry x="1080" y="30" width="230" height="30" as="geometry" />
        </mxCell>
        <mxCell id="t6XDUFwQbXZ4tdVmE6QA-25" style="edgeStyle=orthogonalEdgeStyle;rounded=0;orthogonalLoop=1;jettySize=auto;html=1;exitX=0.5;exitY=1;exitDx=0;exitDy=0;entryX=0.5;entryY=0;entryDx=0;entryDy=0;" parent="hbwUhK697xZ0SKavy68Q-1" source="t6XDUFwQbXZ4tdVmE6QA-2" target="hbwUhK697xZ0SKavy68Q-35" edge="1">
          <mxGeometry relative="1" as="geometry" />
        </mxCell>
        <mxCell id="t6XDUFwQbXZ4tdVmE6QA-26" style="edgeStyle=orthogonalEdgeStyle;rounded=0;orthogonalLoop=1;jettySize=auto;html=1;exitX=0.5;exitY=1;exitDx=0;exitDy=0;entryX=0.5;entryY=0;entryDx=0;entryDy=0;" parent="hbwUhK697xZ0SKavy68Q-1" source="t6XDUFwQbXZ4tdVmE6QA-2" target="hbwUhK697xZ0SKavy68Q-37" edge="1">
          <mxGeometry relative="1" as="geometry" />
        </mxCell>
        <mxCell id="t6XDUFwQbXZ4tdVmE6QA-27" style="edgeStyle=orthogonalEdgeStyle;rounded=0;orthogonalLoop=1;jettySize=auto;html=1;exitX=0.5;exitY=1;exitDx=0;exitDy=0;entryX=0.5;entryY=0;entryDx=0;entryDy=0;" parent="hbwUhK697xZ0SKavy68Q-1" source="t6XDUFwQbXZ4tdVmE6QA-2" target="hbwUhK697xZ0SKavy68Q-39" edge="1">
          <mxGeometry relative="1" as="geometry" />
        </mxCell>
        <mxCell id="t6XDUFwQbXZ4tdVmE6QA-28" style="edgeStyle=orthogonalEdgeStyle;rounded=0;orthogonalLoop=1;jettySize=auto;html=1;exitX=0.5;exitY=1;exitDx=0;exitDy=0;entryX=0.5;entryY=0;entryDx=0;entryDy=0;" parent="hbwUhK697xZ0SKavy68Q-1" source="t6XDUFwQbXZ4tdVmE6QA-2" target="hbwUhK697xZ0SKavy68Q-47" edge="1">
          <mxGeometry relative="1" as="geometry" />
        </mxCell>
        <mxCell id="t6XDUFwQbXZ4tdVmE6QA-2" value="Data Matching" style="rounded=1;whiteSpace=wrap;html=1;fontSize=12;glass=0;strokeWidth=1;shadow=0;" parent="hbwUhK697xZ0SKavy68Q-1" vertex="1">
          <mxGeometry x="250" y="230" width="120" height="40" as="geometry" />
        </mxCell>
        <mxCell id="t6XDUFwQbXZ4tdVmE6QA-21" style="edgeStyle=orthogonalEdgeStyle;rounded=0;orthogonalLoop=1;jettySize=auto;html=1;exitX=0.5;exitY=1;exitDx=0;exitDy=0;" parent="hbwUhK697xZ0SKavy68Q-1" source="t6XDUFwQbXZ4tdVmE6QA-16" target="t6XDUFwQbXZ4tdVmE6QA-2" edge="1">
          <mxGeometry relative="1" as="geometry" />
        </mxCell>
        <mxCell id="t6XDUFwQbXZ4tdVmE6QA-16" value="Data Cleaning" style="rounded=1;whiteSpace=wrap;html=1;fontSize=12;glass=0;strokeWidth=1;shadow=0;" parent="hbwUhK697xZ0SKavy68Q-1" vertex="1">
          <mxGeometry x="250" y="170" width="120" height="40" as="geometry" />
        </mxCell>
      </root>
    </mxGraphModel>
  </diagram>
  <diagram id="C5RBs43oDa-KdzZeNtuy" name="Regression Analysis">
    <mxGraphModel dx="940" dy="789" grid="0" gridSize="10" guides="1" tooltips="1" connect="1" arrows="1" fold="1" page="1" pageScale="1" pageWidth="827" pageHeight="1169" math="0" shadow="0">
      <root>
        <mxCell id="WIyWlLk6GJQsqaUBKTNV-0" />
        <mxCell id="WIyWlLk6GJQsqaUBKTNV-1" parent="WIyWlLk6GJQsqaUBKTNV-0" />
        <mxCell id="7M3RaMrPWzxhI4t-Y5cj-6" style="edgeStyle=orthogonalEdgeStyle;rounded=0;orthogonalLoop=1;jettySize=auto;html=1;exitX=1;exitY=0.5;exitDx=0;exitDy=0;" parent="WIyWlLk6GJQsqaUBKTNV-1" source="uwfSXzObW4QdUz8draN0-19" target="Z7W2o2AKbM6KDkjzq-aW-17" edge="1">
          <mxGeometry relative="1" as="geometry" />
        </mxCell>
        <mxCell id="78TvBPg8HusDYfbs_4kr-2" style="edgeStyle=orthogonalEdgeStyle;rounded=0;orthogonalLoop=1;jettySize=auto;html=1;exitX=1;exitY=0.5;exitDx=0;exitDy=0;entryX=0;entryY=0.5;entryDx=0;entryDy=0;" edge="1" parent="WIyWlLk6GJQsqaUBKTNV-1" source="uwfSXzObW4QdUz8draN0-19" target="78TvBPg8HusDYfbs_4kr-1">
          <mxGeometry relative="1" as="geometry" />
        </mxCell>
        <mxCell id="uwfSXzObW4QdUz8draN0-19" value="&lt;b&gt;Regression Analysis&lt;/b&gt;" style="rounded=1;whiteSpace=wrap;html=1;fontSize=12;glass=0;strokeWidth=1;shadow=0;" parent="WIyWlLk6GJQsqaUBKTNV-1" vertex="1">
          <mxGeometry x="423.13" y="270" width="105" height="105" as="geometry" />
        </mxCell>
        <mxCell id="Z7W2o2AKbM6KDkjzq-aW-31" style="edgeStyle=elbowEdgeStyle;rounded=0;orthogonalLoop=1;jettySize=auto;html=1;exitX=1;exitY=0.5;exitDx=0;exitDy=0;" parent="WIyWlLk6GJQsqaUBKTNV-1" source="uwfSXzObW4QdUz8draN0-26" target="uwfSXzObW4QdUz8draN0-19" edge="1">
          <mxGeometry relative="1" as="geometry">
            <Array as="points">
              <mxPoint x="380" y="235" />
            </Array>
          </mxGeometry>
        </mxCell>
        <mxCell id="uwfSXzObW4QdUz8draN0-26" value="rating" style="rounded=1;whiteSpace=wrap;html=1;fontSize=12;glass=0;strokeWidth=1;shadow=0;" parent="WIyWlLk6GJQsqaUBKTNV-1" vertex="1">
          <mxGeometry x="252.82" y="130" width="55.62" height="30" as="geometry" />
        </mxCell>
        <mxCell id="Z7W2o2AKbM6KDkjzq-aW-0" value="Predictive Regression Model" style="text;html=1;align=center;verticalAlign=middle;whiteSpace=wrap;rounded=0;fontStyle=4;fontSize=18;" parent="WIyWlLk6GJQsqaUBKTNV-1" vertex="1">
          <mxGeometry x="299" y="30" width="241" height="30" as="geometry" />
        </mxCell>
        <mxCell id="Z7W2o2AKbM6KDkjzq-aW-30" style="edgeStyle=elbowEdgeStyle;rounded=0;orthogonalLoop=1;jettySize=auto;html=1;exitX=1;exitY=0.5;exitDx=0;exitDy=0;" parent="WIyWlLk6GJQsqaUBKTNV-1" source="Z7W2o2AKbM6KDkjzq-aW-7" target="uwfSXzObW4QdUz8draN0-19" edge="1">
          <mxGeometry relative="1" as="geometry">
            <Array as="points">
              <mxPoint x="380" y="215" />
            </Array>
          </mxGeometry>
        </mxCell>
        <mxCell id="Z7W2o2AKbM6KDkjzq-aW-7" value="sentiment analysis score" style="rounded=1;whiteSpace=wrap;html=1;fontSize=12;glass=0;strokeWidth=1;shadow=0;" parent="WIyWlLk6GJQsqaUBKTNV-1" vertex="1">
          <mxGeometry x="205.63" y="90" width="150" height="30" as="geometry" />
        </mxCell>
        <mxCell id="Z7W2o2AKbM6KDkjzq-aW-32" style="edgeStyle=elbowEdgeStyle;rounded=0;orthogonalLoop=1;jettySize=auto;html=1;exitX=1;exitY=0.5;exitDx=0;exitDy=0;" parent="WIyWlLk6GJQsqaUBKTNV-1" source="Z7W2o2AKbM6KDkjzq-aW-8" target="uwfSXzObW4QdUz8draN0-19" edge="1">
          <mxGeometry relative="1" as="geometry">
            <Array as="points">
              <mxPoint x="380" y="254" />
            </Array>
          </mxGeometry>
        </mxCell>
        <mxCell id="Z7W2o2AKbM6KDkjzq-aW-8" value="recommend" style="rounded=1;whiteSpace=wrap;html=1;fontSize=12;glass=0;strokeWidth=1;shadow=0;" parent="WIyWlLk6GJQsqaUBKTNV-1" vertex="1">
          <mxGeometry x="237.82" y="170" width="84.37" height="30" as="geometry" />
        </mxCell>
        <mxCell id="Z7W2o2AKbM6KDkjzq-aW-33" style="edgeStyle=elbowEdgeStyle;rounded=0;orthogonalLoop=1;jettySize=auto;html=1;exitX=1;exitY=0.5;exitDx=0;exitDy=0;entryX=0;entryY=0.5;entryDx=0;entryDy=0;" parent="WIyWlLk6GJQsqaUBKTNV-1" source="Z7W2o2AKbM6KDkjzq-aW-9" target="uwfSXzObW4QdUz8draN0-19" edge="1">
          <mxGeometry relative="1" as="geometry">
            <Array as="points">
              <mxPoint x="380" y="273" />
            </Array>
          </mxGeometry>
        </mxCell>
        <mxCell id="Z7W2o2AKbM6KDkjzq-aW-9" value="CEO approval" style="rounded=1;whiteSpace=wrap;html=1;fontSize=12;glass=0;strokeWidth=1;shadow=0;" parent="WIyWlLk6GJQsqaUBKTNV-1" vertex="1">
          <mxGeometry x="233.45" y="210" width="94.37" height="30" as="geometry" />
        </mxCell>
        <mxCell id="Z7W2o2AKbM6KDkjzq-aW-34" style="edgeStyle=elbowEdgeStyle;rounded=0;orthogonalLoop=1;jettySize=auto;html=1;exitX=1;exitY=0.5;exitDx=0;exitDy=0;entryX=0;entryY=0.5;entryDx=0;entryDy=0;" parent="WIyWlLk6GJQsqaUBKTNV-1" source="Z7W2o2AKbM6KDkjzq-aW-10" target="uwfSXzObW4QdUz8draN0-19" edge="1">
          <mxGeometry relative="1" as="geometry">
            <Array as="points">
              <mxPoint x="380" y="293" />
            </Array>
          </mxGeometry>
        </mxCell>
        <mxCell id="Z7W2o2AKbM6KDkjzq-aW-10" value="business outlook" style="rounded=1;whiteSpace=wrap;html=1;fontSize=12;glass=0;strokeWidth=1;shadow=0;" parent="WIyWlLk6GJQsqaUBKTNV-1" vertex="1">
          <mxGeometry x="227.82" y="250" width="104.37" height="30" as="geometry" />
        </mxCell>
        <mxCell id="Z7W2o2AKbM6KDkjzq-aW-35" style="edgeStyle=elbowEdgeStyle;rounded=0;orthogonalLoop=1;jettySize=auto;html=1;exitX=1;exitY=0.5;exitDx=0;exitDy=0;entryX=0;entryY=0.5;entryDx=0;entryDy=0;" parent="WIyWlLk6GJQsqaUBKTNV-1" source="Z7W2o2AKbM6KDkjzq-aW-11" target="uwfSXzObW4QdUz8draN0-19" edge="1">
          <mxGeometry relative="1" as="geometry">
            <Array as="points">
              <mxPoint x="380" y="314" />
            </Array>
          </mxGeometry>
        </mxCell>
        <mxCell id="Z7W2o2AKbM6KDkjzq-aW-11" value="career opportunities" style="rounded=1;whiteSpace=wrap;html=1;fontSize=12;glass=0;strokeWidth=1;shadow=0;" parent="WIyWlLk6GJQsqaUBKTNV-1" vertex="1">
          <mxGeometry x="219.38" y="290" width="122.5" height="30" as="geometry" />
        </mxCell>
        <mxCell id="Z7W2o2AKbM6KDkjzq-aW-36" style="edgeStyle=elbowEdgeStyle;rounded=0;orthogonalLoop=1;jettySize=auto;html=1;exitX=1;exitY=0.5;exitDx=0;exitDy=0;entryX=0;entryY=0.5;entryDx=0;entryDy=0;" parent="WIyWlLk6GJQsqaUBKTNV-1" source="Z7W2o2AKbM6KDkjzq-aW-12" target="uwfSXzObW4QdUz8draN0-19" edge="1">
          <mxGeometry relative="1" as="geometry">
            <Array as="points">
              <mxPoint x="380" y="333" />
            </Array>
          </mxGeometry>
        </mxCell>
        <mxCell id="Z7W2o2AKbM6KDkjzq-aW-12" value="compensation &amp;amp; benefits" style="rounded=1;whiteSpace=wrap;html=1;fontSize=12;glass=0;strokeWidth=1;shadow=0;" parent="WIyWlLk6GJQsqaUBKTNV-1" vertex="1">
          <mxGeometry x="222.51" y="330" width="115" height="30" as="geometry" />
        </mxCell>
        <mxCell id="Z7W2o2AKbM6KDkjzq-aW-37" style="edgeStyle=elbowEdgeStyle;rounded=0;orthogonalLoop=1;jettySize=auto;html=1;exitX=1;exitY=0.5;exitDx=0;exitDy=0;entryX=0;entryY=0.5;entryDx=0;entryDy=0;" parent="WIyWlLk6GJQsqaUBKTNV-1" source="Z7W2o2AKbM6KDkjzq-aW-13" target="uwfSXzObW4QdUz8draN0-19" edge="1">
          <mxGeometry relative="1" as="geometry">
            <Array as="points">
              <mxPoint x="380" y="355" />
            </Array>
          </mxGeometry>
        </mxCell>
        <mxCell id="Z7W2o2AKbM6KDkjzq-aW-13" value="senior management" style="rounded=1;whiteSpace=wrap;html=1;fontSize=12;glass=0;strokeWidth=1;shadow=0;" parent="WIyWlLk6GJQsqaUBKTNV-1" vertex="1">
          <mxGeometry x="223.13" y="370" width="115" height="30" as="geometry" />
        </mxCell>
        <mxCell id="Z7W2o2AKbM6KDkjzq-aW-38" style="edgeStyle=elbowEdgeStyle;rounded=0;orthogonalLoop=1;jettySize=auto;html=1;exitX=1;exitY=0.5;exitDx=0;exitDy=0;entryX=0;entryY=0.5;entryDx=0;entryDy=0;" parent="WIyWlLk6GJQsqaUBKTNV-1" source="Z7W2o2AKbM6KDkjzq-aW-14" target="uwfSXzObW4QdUz8draN0-19" edge="1">
          <mxGeometry relative="1" as="geometry">
            <Array as="points">
              <mxPoint x="380" y="374" />
            </Array>
          </mxGeometry>
        </mxCell>
        <mxCell id="Z7W2o2AKbM6KDkjzq-aW-14" value="work/life balance" style="rounded=1;whiteSpace=wrap;html=1;fontSize=12;glass=0;strokeWidth=1;shadow=0;" parent="WIyWlLk6GJQsqaUBKTNV-1" vertex="1">
          <mxGeometry x="223.13" y="410" width="115" height="30" as="geometry" />
        </mxCell>
        <mxCell id="Z7W2o2AKbM6KDkjzq-aW-39" style="edgeStyle=elbowEdgeStyle;rounded=0;orthogonalLoop=1;jettySize=auto;html=1;exitX=1;exitY=0.5;exitDx=0;exitDy=0;" parent="WIyWlLk6GJQsqaUBKTNV-1" source="Z7W2o2AKbM6KDkjzq-aW-15" target="uwfSXzObW4QdUz8draN0-19" edge="1">
          <mxGeometry relative="1" as="geometry" />
        </mxCell>
        <mxCell id="Z7W2o2AKbM6KDkjzq-aW-15" value="culture &amp;amp; values" style="rounded=1;whiteSpace=wrap;html=1;fontSize=12;glass=0;strokeWidth=1;shadow=0;" parent="WIyWlLk6GJQsqaUBKTNV-1" vertex="1">
          <mxGeometry x="222.51" y="450" width="115" height="30" as="geometry" />
        </mxCell>
        <mxCell id="Z7W2o2AKbM6KDkjzq-aW-17" value="firm financial performance" style="rounded=1;whiteSpace=wrap;html=1;fontSize=12;glass=0;strokeWidth=1;shadow=0;" parent="WIyWlLk6GJQsqaUBKTNV-1" vertex="1">
          <mxGeometry x="582" y="270" width="156.88" height="42.5" as="geometry" />
        </mxCell>
        <mxCell id="Z7W2o2AKbM6KDkjzq-aW-19" value="" style="shape=curlyBracket;whiteSpace=wrap;html=1;rounded=1;labelPosition=left;verticalLabelPosition=middle;align=right;verticalAlign=middle;" parent="WIyWlLk6GJQsqaUBKTNV-1" vertex="1">
          <mxGeometry x="170.63" y="90" width="20" height="390" as="geometry" />
        </mxCell>
        <mxCell id="blLO0xRc2xcbb9aFX8Ku-3" value="&lt;span style=&quot;font-weight: 400;&quot;&gt;Job Satisfaction&lt;/span&gt;" style="text;html=1;align=center;verticalAlign=middle;whiteSpace=wrap;rounded=0;fontStyle=1;fontSize=14;" parent="WIyWlLk6GJQsqaUBKTNV-1" vertex="1">
          <mxGeometry x="61.879999999999995" y="275" width="108.75" height="20" as="geometry" />
        </mxCell>
        <mxCell id="blLO0xRc2xcbb9aFX8Ku-4" value="&lt;span style=&quot;font-weight: 400;&quot;&gt;Employee Retention&lt;/span&gt;" style="text;html=1;align=center;verticalAlign=middle;whiteSpace=wrap;rounded=0;fontStyle=1;fontSize=14;" parent="WIyWlLk6GJQsqaUBKTNV-1" vertex="1">
          <mxGeometry x="593" y="388" width="130" height="20" as="geometry" />
        </mxCell>
        <mxCell id="blLO0xRc2xcbb9aFX8Ku-5" value="&lt;span style=&quot;font-weight: 400;&quot;&gt;Firm Performance&lt;/span&gt;" style="text;html=1;align=center;verticalAlign=middle;whiteSpace=wrap;rounded=0;fontStyle=1;fontSize=14;" parent="WIyWlLk6GJQsqaUBKTNV-1" vertex="1">
          <mxGeometry x="592.9999999999999" y="236" width="130" height="20" as="geometry" />
        </mxCell>
        <mxCell id="78TvBPg8HusDYfbs_4kr-1" value="employee retention status" style="rounded=1;whiteSpace=wrap;html=1;fontSize=12;glass=0;strokeWidth=1;shadow=0;" vertex="1" parent="WIyWlLk6GJQsqaUBKTNV-1">
          <mxGeometry x="582" y="332.5" width="156.88" height="42.5" as="geometry" />
        </mxCell>
      </root>
    </mxGraphModel>
  </diagram>
</mxfile>
